<?xml version="1.0" standalone="no"?>
<!DOCTYPE svg PUBLIC "-//W3C//DTD SVG 20010904//EN"
 "http://www.w3.org/TR/2001/REC-SVG-20010904/DTD/svg10.dtd">
<svg version="1.0" xmlns="http://www.w3.org/2000/svg"
 width="672.000000pt" height="672.000000pt" viewBox="0 0 672.000000 672.000000"
 preserveAspectRatio="xMidYMid meet">
<metadata>
Created by potrace 1.14, written by Peter Selinger 2001-2017
</metadata>
<g transform="translate(0.000000,672.000000) scale(0.100000,-0.100000)"
fill="#000000" stroke="none">
<path d="M3247 6634 c-1 -1 -31 -5 -67 -8 -36 -3 -99 -12 -140 -21 -41 -9 -84
-18 -94 -20 -90 -19 -293 -106 -416 -177 -140 -81 -355 -274 -440 -394 -83
-118 -110 -162 -155 -248 -109 -213 -176 -472 -177 -686 l0 -45 -51 0 c-93 -1
-332 -33 -332 -45 0 -1 -7 -3 -16 -5 -9 -1 -43 -11 -75 -21 -33 -10 -61 -18
-64 -19 -3 -1 -22 -9 -44 -18 -21 -9 -40 -17 -42 -17 -11 0 -127 -59 -172 -87
-29 -18 -55 -33 -58 -33 -14 0 -194 -143 -254 -202 -96 -93 -213 -239 -266
-333 -52 -92 -128 -253 -129 -275 0 -3 -3 -9 -6 -15 -4 -5 -10 -23 -14 -40 -5
-16 -9 -34 -11 -40 -2 -5 -5 -19 -7 -30 -3 -11 -11 -40 -17 -65 -7 -25 -14
-58 -16 -75 -2 -16 -7 -50 -11 -75 -9 -56 -9 -361 0 -415 14 -81 21 -120 22
-125 1 -3 5 -21 9 -40 15 -64 58 -194 79 -235 11 -22 20 -42 19 -45 -1 -10 66
-136 103 -195 88 -138 228 -299 325 -374 12 -9 38 -31 58 -48 20 -18 40 -33
44 -33 5 0 30 -16 56 -35 41 -29 237 -137 245 -134 1 0 13 -4 27 -9 52 -21 59
-24 155 -52 119 -35 275 -60 394 -64 50 -1 47 7 55 -131 4 -49 8 -101 11 -115
3 -14 8 -38 11 -55 2 -16 9 -46 14 -65 5 -19 11 -44 13 -55 2 -11 6 -27 9 -35
3 -8 18 -50 33 -94 57 -161 176 -365 290 -496 65 -75 199 -199 244 -228 14 -9
28 -19 31 -22 16 -19 240 -153 260 -156 3 0 23 -8 45 -18 141 -62 307 -104
480 -122 71 -7 235 -10 235 -4 0 3 24 6 53 6 82 2 188 19 281 46 22 6 46 12
51 14 88 20 314 128 426 205 256 174 473 445 588 736 35 88 78 231 86 288 1
11 6 43 10 70 3 28 8 60 10 72 3 21 8 127 6 149 -1 10 -784 15 -794 4 -2 -3
-7 -36 -11 -75 -6 -70 -21 -135 -49 -211 -16 -43 -74 -152 -92 -170 -5 -6 -28
-34 -50 -61 -53 -67 -153 -145 -245 -191 -41 -20 -77 -36 -80 -35 -3 0 -18 -4
-35 -11 -16 -7 -46 -16 -65 -19 -19 -4 -46 -9 -60 -12 -39 -8 -169 -8 -229 0
-106 15 -282 84 -347 138 -123 99 -211 206 -259 312 -14 33 -31 69 -36 80 -15
34 -39 162 -43 235 l-2 25 -390 1 c-214 0 -394 3 -399 6 -6 4 -10 154 -9 397
0 215 -2 392 -5 392 -3 1 -15 3 -26 4 -241 29 -376 89 -523 232 -165 162 -243
351 -242 593 1 208 106 430 272 575 38 33 75 61 83 63 8 2 15 8 15 13 0 5 6 9
14 9 8 0 16 4 18 8 5 11 123 62 182 79 55 15 132 27 182 27 l31 1 -1 388 c-1
214 2 394 6 400 5 9 114 12 400 12 l392 1 2 24 c23 346 217 611 534 731 40 16
33 14 130 32 112 20 278 11 360 -20 8 -3 23 -8 33 -10 74 -14 245 -126 325
-212 123 -132 204 -321 215 -501 l2 -45 398 1 c271 0 397 -3 398 -10 0 -6 1
-186 2 -400 l2 -389 45 -3 c99 -6 214 -35 285 -72 22 -11 43 -20 48 -21 9 -1
98 -64 133 -94 61 -52 163 -171 164 -191 0 -5 6 -17 14 -25 15 -16 74 -156 82
-195 43 -196 23 -384 -60 -551 -25 -49 -54 -100 -65 -112 -12 -12 -21 -26 -21
-30 0 -8 -110 -116 -145 -143 -62 -47 -195 -116 -238 -124 -12 -3 -23 -5 -24
-7 -2 -1 -7 -3 -13 -4 -5 -1 -11 -3 -12 -5 -2 -1 -12 -3 -23 -5 -11 -2 -38 -6
-60 -10 -22 -3 -53 -7 -70 -9 -16 -2 -33 -4 -36 -5 -4 0 -7 -179 -7 -396 0
-361 1 -395 16 -396 40 -3 210 9 221 15 3 2 29 7 56 10 149 20 381 109 542
209 110 68 192 134 293 236 104 106 119 123 170 196 19 28 37 52 40 55 10 10
42 68 90 164 75 148 132 330 156 496 10 67 12 345 3 400 -5 30 -11 73 -14 95
-31 217 -171 534 -314 708 -159 193 -337 340 -531 437 -36 17 -76 38 -90 45
-30 15 -195 72 -230 79 -14 3 -59 12 -100 21 -81 18 -139 25 -237 29 -35 1
-64 4 -66 7 -3 2 -7 49 -10 104 -7 101 -29 241 -48 303 -6 18 -12 39 -13 45
-13 77 -149 368 -193 415 -7 7 -13 17 -13 21 0 4 -8 16 -18 27 -10 10 -23 27
-28 35 -61 107 -283 309 -454 415 -70 43 -225 120 -260 129 -3 0 -34 10 -70
22 -84 28 -119 37 -180 47 -14 2 -54 9 -90 16 -54 10 -325 22 -333 14z"/>
<path d="M3198 4924 c-2 -1 -21 -5 -43 -8 -143 -22 -347 -80 -382 -108 -7 -6
-13 -8 -13 -4 0 12 -184 -92 -271 -153 -153 -109 -335 -306 -417 -454 -13 -23
-34 -58 -45 -77 -12 -19 -21 -37 -21 -40 0 -3 -7 -23 -16 -45 -22 -50 -33 -79
-34 -85 -1 -3 -4 -9 -7 -15 -8 -13 -56 -200 -63 -245 -16 -100 -19 -145 -19
-255 0 -146 11 -237 40 -345 8 -30 16 -66 19 -80 10 -52 78 -208 129 -300 80
-142 152 -235 270 -351 60 -58 199 -169 212 -169 3 0 14 -6 22 -14 25 -23 162
-93 247 -127 98 -38 278 -85 369 -94 127 -14 386 -8 438 10 7 3 23 6 37 9 89
15 267 73 327 107 18 10 40 19 48 19 8 0 15 4 15 9 0 5 8 11 18 14 67 23 250
158 349 259 79 80 203 236 203 256 0 6 4 12 8 12 13 0 117 214 146 301 82 239
101 506 56 754 -29 160 -58 244 -141 410 -49 99 -63 124 -86 154 -7 9 -33 45
-60 80 -46 63 -158 180 -219 231 -70 58 -114 90 -138 101 -14 7 -26 15 -26 19
0 13 -224 119 -316 149 -84 28 -181 52 -272 67 -36 6 -359 13 -364 8z m251
-749 c156 -16 305 -89 427 -210 61 -60 154 -191 154 -217 0 -8 4 -18 9 -23 24
-26 53 -155 57 -254 3 -96 0 -124 -31 -264 -8 -38 -80 -172 -118 -221 -50 -64
-146 -156 -164 -156 -7 0 -13 -4 -13 -9 0 -17 -165 -90 -245 -109 -122 -29
-285 -24 -390 12 -40 13 -56 20 -105 43 -209 101 -361 299 -405 527 -18 88
-13 250 9 331 82 298 346 526 637 551 41 3 76 8 78 10 2 2 13 2 25 -1 12 -2
46 -7 75 -10z"/>
</g>
</svg>
