<svg width="20" height="21" viewBox="0 0 20 21" fill="none" xmlns="http://www.w3.org/2000/svg">
    <path d="M9.9835 0.260933C7.22278 0.260933 4.9919 2.50255 4.9919 5.26093H7.4877C7.4877 3.88523 8.61011 2.76093 9.9835 2.76093C11.3569 2.76093 12.4793 3.88523 12.4793 5.26093H14.9751C14.9751 2.50255 12.7442 0.260933 9.9835 0.260933Z" fill="#282828"/>
    <path d="M17.4706 10.2607H19.9664C19.9664 7.50227 17.7356 5.26065 14.9748 5.26065V7.76065C16.3482 7.76065 17.4706 8.88496 17.4706 10.2607Z" fill="#282828"/>
    <path d="M14.9748 12.7607V15.2607C17.7356 15.2607 19.9664 13.0261 19.9664 10.2607H17.4706C17.4706 11.6364 16.3482 12.7607 14.9748 12.7607Z" fill="#282828"/>
    <path d="M9.98426 12.5936V14.926C12.5637 14.926 14.6412 12.831 14.6412 10.2612C14.6412 7.67738 12.5637 5.59637 9.98426 5.59637C7.40481 5.59637 5.3273 7.67738 5.3273 10.2612C5.3273 12.831 7.40481 14.926 9.98426 14.926V12.5936C8.70151 12.5936 7.65578 11.5461 7.65578 10.2612C7.65578 8.97626 8.70151 7.92877 9.98426 7.92877C11.267 7.92877 12.3127 8.97626 12.3127 10.2612C12.3127 11.5461 11.267 12.5936 9.98426 12.5936Z" fill="#282828"/>
    <path d="M2.4958 10.2607H0C0 13.0261 2.23088 15.2607 4.9916 15.2607V12.7607C3.61821 12.7607 2.4958 11.6364 2.4958 10.2607Z" fill="#282828"/>
    <path d="M0 10.2607H2.4958C2.4958 8.88496 3.61821 7.76065 4.9916 7.76065V5.26065C2.23088 5.26065 0 7.50227 0 10.2607Z" fill="#282828"/>
    <path d="M9.9835 17.7611C8.61011 17.7611 7.4877 16.6368 7.4877 15.2611H4.9919C4.9919 18.0264 7.22278 20.2611 9.9835 20.2611C12.7442 20.2611 14.9751 18.0264 14.9751 15.2611H12.4793C12.4793 16.6368 11.3569 17.7611 9.9835 17.7611Z" fill="#282828"/>
</svg>
