<svg width="75" height="23" viewBox="0 0 75 23" fill="none" xmlns="http://www.w3.org/2000/svg">
    <path d="M6.65854 18.0988C4.61474 18.0988 2.99543 17.5297 1.8006 16.3915C0.605763 15.2374 0.00834656 13.5933 0.00834656 11.4591V7.47528C0.00834656 5.34109 0.605763 3.70488 1.8006 2.56664C2.99543 1.4126 4.61474 0.835575 6.65854 0.835575C8.68661 0.835575 10.2509 1.39679 11.3514 2.51922C12.4676 3.62583 13.0257 5.15139 13.0257 7.09587V7.23815H9.96005V7.00102C9.96005 6.02087 9.68493 5.21462 9.13467 4.58227C8.60014 3.94991 7.77477 3.63374 6.65854 3.63374C5.55803 3.63374 4.69335 3.97363 4.06449 4.65341C3.43563 5.33319 3.1212 6.258 3.1212 7.42786V11.5065C3.1212 12.6606 3.43563 13.5854 4.06449 14.281C4.69335 14.9608 5.55803 15.3007 6.65854 15.3007C7.77477 15.3007 8.60014 14.9845 9.13467 14.3521C9.68493 13.704 9.96005 12.8977 9.96005 11.9334V11.5065H13.0257V11.8385C13.0257 13.783 12.4676 15.3165 11.3514 16.4389C10.2509 17.5455 8.68661 18.0988 6.65854 18.0988Z" fill="#282828"/>
    <path d="M14.9144 17.7668V1.16756H17.8858V17.7668H14.9144Z" fill="#282828"/>
    <path d="M26.0018 18.0988C24.8384 18.0988 23.793 17.8617 22.8654 17.3874C21.9378 16.9132 21.2068 16.2255 20.6722 15.3244C20.1377 14.4233 19.8704 13.3404 19.8704 12.0757V11.6962C19.8704 10.4315 20.1377 9.34863 20.6722 8.44753C21.2068 7.54642 21.9378 6.85874 22.8654 6.38447C23.793 5.91021 24.8384 5.67307 26.0018 5.67307C27.1652 5.67307 28.2107 5.91021 29.1383 6.38447C30.0658 6.85874 30.7969 7.54642 31.3314 8.44753C31.8659 9.34863 32.1332 10.4315 32.1332 11.6962V12.0757C32.1332 13.3404 31.8659 14.4233 31.3314 15.3244C30.7969 16.2255 30.0658 16.9132 29.1383 17.3874C28.2107 17.8617 27.1652 18.0988 26.0018 18.0988ZM26.0018 15.4429C26.9137 15.4429 27.6683 15.1505 28.2657 14.5655C28.8631 13.9648 29.1618 13.1111 29.1618 12.0045V11.7674C29.1618 10.6608 28.8631 9.81499 28.2657 9.23006C27.684 8.62933 26.9294 8.32896 26.0018 8.32896C25.09 8.32896 24.3353 8.62933 23.7379 9.23006C23.1405 9.81499 22.8418 10.6608 22.8418 11.7674V12.0045C22.8418 13.1111 23.1405 13.9648 23.7379 14.5655C24.3353 15.1505 25.09 15.4429 26.0018 15.4429Z" fill="#282828"/>
    <path d="M34.1339 17.7668V6.00506H37.0581V7.54642H37.4826C37.6712 7.13539 38.025 6.74808 38.5438 6.38447C39.0626 6.00506 39.8487 5.81536 40.902 5.81536C41.8139 5.81536 42.6078 6.02878 43.2838 6.45561C43.9756 6.86664 44.5101 7.44367 44.8874 8.18668C45.2647 8.91389 45.4534 9.76756 45.4534 10.7477V17.7668H42.482V10.9848C42.482 10.0995 42.2619 9.43558 41.8217 8.99293C41.3972 8.55028 40.7841 8.32896 39.9823 8.32896C39.0704 8.32896 38.363 8.63723 37.8599 9.25378C37.3568 9.85451 37.1053 10.7003 37.1053 11.7911V17.7668H34.1339Z" fill="#282828"/>
    <path d="M47.9235 17.7668V6.00506H50.8949V17.7668H47.9235ZM49.4092 4.62969C48.8746 4.62969 48.4187 4.4558 48.0414 4.108C47.6798 3.76021 47.499 3.30175 47.499 2.73263C47.499 2.16352 47.6798 1.70506 48.0414 1.35727C48.4187 1.00947 48.8746 0.835575 49.4092 0.835575C49.9594 0.835575 50.4154 1.00947 50.7769 1.35727C51.1385 1.70506 51.3193 2.16352 51.3193 2.73263C51.3193 3.30175 51.1385 3.76021 50.7769 4.108C50.4154 4.4558 49.9594 4.62969 49.4092 4.62969Z" fill="#282828"/>
    <path d="M55.3792 17.7668V8.47124H52.4079V6.00506H55.3792V3.82344C55.3792 3.01719 55.6151 2.37694 56.0867 1.90267C56.5741 1.4126 57.2029 1.16756 57.9733 1.16756H61.039V3.63374H59.0109C58.5707 3.63374 58.3506 3.87087 58.3506 4.34513V6.00506H61.4163V8.47124H58.3506V17.7668H55.3792Z" fill="#282828"/>
    <path d="M64.2481 22.5095V19.901H70.6153C71.0555 19.901 71.2756 19.6639 71.2756 19.1896V16.2255H70.8511C70.7253 16.4942 70.5288 16.763 70.2615 17.0317C69.9943 17.3005 69.6327 17.5218 69.1768 17.6957C68.7208 17.8696 68.1391 17.9565 67.4317 17.9565C66.5198 17.9565 65.718 17.751 65.0263 17.34C64.3503 16.9132 63.8236 16.3282 63.4463 15.5852C63.069 14.8422 62.8803 13.9885 62.8803 13.0242V6.00506H65.8517V12.787C65.8517 13.6723 66.0639 14.3363 66.4884 14.779C66.9286 15.2216 67.5496 15.4429 68.3514 15.4429C69.2632 15.4429 69.9707 15.1426 70.4738 14.5418C70.9769 13.9253 71.2284 13.0716 71.2284 11.9808V6.00506H74.1998V19.8536C74.1998 20.6598 73.964 21.3001 73.4923 21.7744C73.0207 22.2644 72.3918 22.5095 71.6057 22.5095H64.2481Z" fill="#282828"/>
</svg>
