<svg width="44" height="44" viewBox="0 0 44 44" fill="none" xmlns="http://www.w3.org/2000/svg">
    <rect width="44" height="44" rx="9.42857" fill="white"/>
    <path d="M17.5313 35.75C19.9981 35.75 22.0001 33.748 22.0001 31.2812V26.8125H17.5313C15.0646 26.8125 13.0626 28.8145 13.0626 31.2812C13.0626 33.748 15.0646 35.75 17.5313 35.75Z" fill="#0ACF83"/>
    <path d="M13.0626 22.3438C13.0626 19.877 15.0646 17.875 17.5313 17.875H22.0001V26.8125H17.5313C15.0646 26.8125 13.0626 24.8105 13.0626 22.3438Z" fill="#A259FF"/>
    <path d="M13.0626 13.4062C13.0626 10.9395 15.0646 8.9375 17.5313 8.9375H22.0001V17.875H17.5313C15.0646 17.875 13.0626 15.873 13.0626 13.4062Z" fill="#F24E1E"/>
    <path d="M22.0001 8.9375H26.4688C28.9356 8.9375 30.9376 10.9395 30.9376 13.4062C30.9376 15.873 28.9356 17.875 26.4688 17.875H22.0001V8.9375Z" fill="#FF7262"/>
    <path d="M30.9376 22.3438C30.9376 24.8105 28.9356 26.8125 26.4688 26.8125C24.0021 26.8125 22.0001 24.8105 22.0001 22.3438C22.0001 19.877 24.0021 17.875 26.4688 17.875C28.9356 17.875 30.9376 19.877 30.9376 22.3438Z" fill="#1ABCFE"/>
</svg>
