<svg width="44" height="44" viewBox="0 0 44 44" fill="none" xmlns="http://www.w3.org/2000/svg">
    <rect width="44" height="44" rx="9.42857" fill="white"/>
    <path d="M11.1461 25.538C11.1461 26.5656 11.3707 27.3545 11.6646 27.8317C12.0497 28.4569 12.624 28.7222 13.2096 28.7222C13.9648 28.7222 14.6557 28.5341 15.9872 26.6858C17.0541 25.2044 18.3108 23.125 19.1565 21.8213L20.5887 19.6127C21.5835 18.0789 22.7351 16.3738 24.0554 15.2181C25.1336 14.2747 26.296 13.7507 27.4662 13.7507C29.4308 13.7507 31.3022 14.8933 32.7344 17.0364C34.3018 19.3834 35.0626 22.3398 35.0626 25.3906C35.0626 27.2043 34.7064 28.5369 34.1003 29.5898C33.5148 30.6079 32.3735 31.6252 30.4537 31.6252V28.7218C32.0976 28.7218 32.5077 27.2057 32.5077 25.4706C32.5077 22.9981 31.9334 20.2543 30.6681 18.2937C29.7702 16.9031 28.6066 16.0534 27.3263 16.0534C25.9417 16.0534 24.8274 17.1017 23.5752 18.9703C22.9094 19.9633 22.226 21.1733 21.4585 22.5387L20.6137 24.0407C18.9169 27.0611 18.487 27.7488 17.6385 28.8837C16.1514 30.8712 14.8814 31.6247 13.2096 31.6247C11.2263 31.6247 9.97225 30.7628 9.19551 29.4638C8.56151 28.4055 8.25007 27.0166 8.25007 25.4342L11.1461 25.538Z" fill="#0081FB"/>
    <path d="M10.5336 17.2407C11.8613 15.1865 13.7775 13.75 15.9752 13.75C17.2479 13.75 18.5134 14.1281 19.8344 15.2109C21.2796 16.3945 22.82 18.3446 24.7418 21.5572L25.4308 22.7098C27.0942 25.4912 28.0406 26.9221 28.5945 27.5968C29.3068 28.4633 29.8056 28.7217 30.4537 28.7217C32.0976 28.7217 32.5077 27.2056 32.5077 25.4705L35.0626 25.39C35.0626 27.2038 34.7065 28.5364 34.1003 29.5892C33.5148 30.6073 32.3735 31.6247 30.4537 31.6247C29.2601 31.6247 28.2028 31.3645 27.0336 30.2573C26.1351 29.4076 25.0839 27.8981 24.2754 26.5412L21.8707 22.5096C20.6643 20.4863 19.5571 18.9778 18.917 18.2946C18.2278 17.5598 17.342 16.6727 15.9285 16.6727C14.7845 16.6727 13.8129 17.4784 12.9998 18.711L10.5336 17.2407Z" fill="url(#paint0_linear_3_3)"/>
    <path d="M15.9284 16.6727C14.7844 16.6727 13.8128 17.4784 12.9998 18.711C11.8501 20.4525 11.1467 23.0466 11.1467 25.5378C11.1467 26.5654 11.3713 27.3542 11.6651 27.8315L9.19551 29.4636C8.56151 28.4053 8.25007 27.0164 8.25007 25.434C8.25007 22.5563 9.03703 19.5569 10.5336 17.2407C11.8613 15.1865 13.7775 13.75 15.9752 13.75L15.9284 16.6727Z" fill="url(#paint1_linear_3_3)"/>
    <defs>
        <linearGradient id="paint0_linear_3_3" x1="13.4203" y1="28.9508" x2="31.8038" y2="30.7056" gradientUnits="userSpaceOnUse">
            <stop stop-color="#0064E1"/>
            <stop offset="0.4" stop-color="#0064E1"/>
            <stop offset="0.83" stop-color="#0073EE"/>
            <stop offset="1" stop-color="#0082FB"/>
        </linearGradient>
        <linearGradient id="paint1_linear_3_3" x1="13.7918" y1="26.7582" x2="13.7918" y2="19.9266" gradientUnits="userSpaceOnUse">
            <stop stop-color="#0082FB"/>
            <stop offset="1" stop-color="#0064E0"/>
        </linearGradient>
    </defs>
</svg>
