<svg width="44" height="44" viewBox="0 0 44 44" fill="none" xmlns="http://www.w3.org/2000/svg">
    <rect width="44" height="44" rx="9.42857" fill="white"/>
    <path d="M13.2383 25.7905L11.913 26.2687L11.8425 30.162L16.4298 28.507C14.8551 27.9861 13.7067 27.0682 13.2383 25.7905" fill="#FDBD39"/>
    <path d="M13.9321 21.6725L9.33318 23.3317L11.9131 26.2696L13.2384 25.7914C12.771 24.5179 13.0594 23.0801 13.9321 21.6725" fill="#F69833"/>
    <path d="M21.6701 16.0534C15.8144 18.1659 12.0387 22.526 13.2387 25.7904L34.4436 18.1399C33.2436 14.8755 27.5258 13.9409 21.6701 16.0534" fill="#FECF33"/>
    <path d="M26.0108 27.8779C31.8665 25.7655 35.6486 21.4251 34.4423 18.141L13.2373 25.7904C14.4436 29.0756 20.1551 29.9904 26.0108 27.8779" fill="#EE6723"/>
    <path d="M34.4421 18.1399L13.2382 25.7904C13.6529 26.9215 15.2371 27.4787 17.4581 27.4787C19.6244 27.4787 22.397 26.9496 25.2875 25.9068C31.1432 23.7944 35.2621 20.373 34.4421 18.1399" fill="#F69833"/>
    <path d="M30.2222 16.4526C28.057 16.4526 25.2833 16.9818 22.3928 18.0245C16.5371 20.137 12.4182 23.5573 13.2382 25.7904L34.4432 18.1399C34.0274 17.0088 32.4443 16.4526 30.2222 16.4526" fill="#FDBD39"/>
    <path fill-rule="evenodd" clip-rule="evenodd" d="M26.3152 28.7148C27.5067 29.8127 28.4267 30.3689 29.0509 30.3689C29.2162 30.373 29.3783 30.3262 29.5141 30.2348C30.2814 29.7025 29.6962 27.9029 29.0709 26.487L29.0215 26.3768L28.9151 26.436C28.8351 26.4818 28.7488 26.5285 28.6604 26.5764L28.572 26.6242L28.613 26.7157C29.4951 28.7138 29.4951 29.6401 29.2267 29.8262C29.1804 29.8584 29.1194 29.874 29.0436 29.874C28.8236 29.874 28.1509 29.7253 26.6583 28.3499C25.2731 27.0743 23.6836 25.201 22.1805 23.0729C20.6784 20.9458 19.4458 18.824 18.71 17.0982C17.9185 15.2425 17.9353 14.3776 18.19 14.2009C18.2332 14.1707 18.2932 14.1562 18.369 14.1562C18.6342 14.1562 19.449 14.3547 21.3016 16.1979L21.47 16.3653L21.4889 16.1293C21.4984 16.0098 21.5089 15.8892 21.5205 15.7686L21.5258 15.7166L21.4879 15.6802C19.769 14.0085 18.8385 13.6582 18.3616 13.6582C18.1974 13.654 18.0364 13.7008 17.9006 13.7923C17.3143 14.1998 17.4311 15.3767 18.2469 17.2916C18.9963 19.0496 20.2469 21.2037 21.7689 23.3588C23.2921 25.5139 24.9057 27.4164 26.3152 28.7148Z" fill="#EE6723"/>
    <path d="M26.1531 27.8176L26.1447 27.9257C25.9963 29.7347 25.6068 31.9095 24.59 31.9979C24.5689 32 24.5479 32 24.5279 32C23.8374 32 23.1837 31.0227 22.5869 29.0963C22.0206 27.2729 21.5816 24.8256 21.3511 22.2048C21.1195 19.5839 21.1227 17.0982 21.3606 15.2051C21.6195 13.1425 22.1121 12.0655 22.8258 12.0031C22.8469 12.001 22.869 12 22.89 12C23.3911 12 24.1458 12.5603 24.9184 15.1697L24.4142 15.2654C24.1563 14.3942 23.8753 13.6852 23.5963 13.1966C23.3384 12.7464 23.0869 12.4979 22.89 12.4979C22.8837 12.4979 22.8774 12.4979 22.87 12.499C22.5606 12.526 22.11 13.2662 21.8595 15.2664C21.6258 17.1252 21.6227 19.5746 21.8511 22.1611C22.0795 24.7487 22.5111 27.1595 23.0669 28.9498C23.3153 29.7513 23.5879 30.4125 23.8563 30.8606C24.1026 31.2743 24.3416 31.502 24.5279 31.502C24.5342 31.502 24.5405 31.502 24.5468 31.501C24.8426 31.476 25.4005 30.7046 25.6352 27.9923L26.1531 27.8176Z" fill="#EE6723"/>
</svg>
